HIERARCHY
ROOT Hips
{
	OFFSET 0.000000 0.000000 0.000000
	CHANNELS 6 Xposition Yposition Zposition Xrotation Yrotation Zrotation
	JOINT LeftUpLeg_virtual
	{
		OFFSET 0.000000 0.000000 0.000000
		CHANNELS 3 Xrotation Yrotation Zrotation
		JOINT LeftUpLeg
		{
			OFFSET 15.427100 -6.655098 0.678600
			CHANNELS 3 Xrotation Yrotation Zrotation
			JOINT LeftLeg
			{
				OFFSET 4.081073 -39.591068 13.024000
				CHANNELS 3 Xrotation Yrotation Zrotation
				JOINT LeftFoot
				{
					OFFSET -4.081074 -37.707932 -15.979700
					CHANNELS 3 Xrotation Yrotation Zrotation
					JOINT LeftToeBase
					{
						OFFSET 5.346399 -15.068900 20.645000
						CHANNELS 3 Xrotation Yrotation Zrotation
						JOINT LeftToe_End
						{
							OFFSET 2.754700 0.931300 11.300900
							CHANNELS 3 Xrotation Yrotation Zrotation
							End Site
							{
								OFFSET 0 0 0
							}
						}
					}
				}
			}
		}
	}
	JOINT RightUpLeg_virtual
	{
		OFFSET 0.000000 0.000000 0.000000
		CHANNELS 3 Xrotation Yrotation Zrotation
		JOINT RightUpLeg
		{
			OFFSET -15.569500 -6.655098 0.678600
			CHANNELS 3 Xrotation Yrotation Zrotation
			JOINT RightLeg
			{
				OFFSET -4.081825 -39.591045 13.023800
				CHANNELS 3 Xrotation Yrotation Zrotation
				JOINT RightFoot
				{
					OFFSET 4.081824 -37.707954 -15.979600
					CHANNELS 3 Xrotation Yrotation Zrotation
					JOINT RightToeBase
					{
						OFFSET -5.346400 -15.068900 20.645000
						CHANNELS 3 Xrotation Yrotation Zrotation
						JOINT RightToe_End
						{
							OFFSET -2.754700 0.931300 11.300900
							CHANNELS 3 Xrotation Yrotation Zrotation
							End Site
							{
								OFFSET 0 0 0
							}
						}
					}
				}
			}
		}
	}
	JOINT Spine_virtual
	{
		OFFSET 0.000000 0.000000 0.000000
		CHANNELS 3 Xrotation Yrotation Zrotation
		JOINT Spine
		{
			OFFSET -0.279200 12.230698 -2.892100
			CHANNELS 3 Xrotation Yrotation Zrotation
			JOINT Spine1
			{
				OFFSET -0.232667 10.192268 -1.242267
				CHANNELS 3 Xrotation Yrotation Zrotation
				JOINT Spine1_split
				{
					OFFSET -0.232667 10.192268 -1.242267
					CHANNELS 3 Xrotation Yrotation Zrotation
					JOINT Spine2
					{
						OFFSET -0.232667 10.192268 -1.242267
						CHANNELS 3 Xrotation Yrotation Zrotation
						JOINT Neck_virtual
						{
							OFFSET 0.000000 0.000000 0.000000
							CHANNELS 3 Xrotation Yrotation Zrotation
							JOINT Neck
							{
								OFFSET -0.418800 17.814194 8.416900
								CHANNELS 3 Xrotation Yrotation Zrotation
								JOINT Head
								{
									OFFSET 0.000000 7.031097 3.806800
									CHANNELS 3 Xrotation Yrotation Zrotation
									JOINT HeadTop_End
									{
										OFFSET 0.000000 24.646606 12.978600
										CHANNELS 3 Xrotation Yrotation Zrotation
										End Site
										{
											OFFSET 0 0 0
										}
									}
								}
							}
						}
						JOINT LeftShoulder_virtual
						{
							OFFSET 0.000000 0.000000 0.000000
							CHANNELS 3 Xrotation Yrotation Zrotation
							JOINT LeftShoulder
							{
								OFFSET 8.476499 7.247704 -3.868750
								CHANNELS 3 Xrotation Yrotation Zrotation
								JOINT LeftShoulder_split
								{
									OFFSET 8.476499 7.247704 -3.868750
									CHANNELS 3 Xrotation Yrotation Zrotation
									JOINT LeftArm
									{
										OFFSET 9.308998 -2.777710 0.208600
										CHANNELS 3 Xrotation Yrotation Zrotation
										JOINT LeftForeArm
										{
											OFFSET 29.972298 0.000000 0.000000
											CHANNELS 3 Xrotation Yrotation Zrotation
											JOINT LeftHand
											{
												OFFSET 26.026505 0.000000 0.000000
												CHANNELS 3 Xrotation Yrotation Zrotation
												End Site
												{
													OFFSET 0 0 0
												}
											}
										}
									}
								}
							}
						}
						JOINT RightShoulder_virtual
						{
							OFFSET 0.000000 0.000000 0.000000
							CHANNELS 3 Xrotation Yrotation Zrotation
							JOINT RightShoulder
							{
								OFFSET -7.570500 7.247704 -3.868750
								CHANNELS 3 Xrotation Yrotation Zrotation
								JOINT RightShoulder_split
								{
									OFFSET -7.570500 7.247704 -3.868750
									CHANNELS 3 Xrotation Yrotation Zrotation
									JOINT RightArm
									{
										OFFSET -9.308998 -2.777710 0.208500
										CHANNELS 3 Xrotation Yrotation Zrotation
										JOINT RightForeArm
										{
											OFFSET -29.972300 0.000000 0.000000
											CHANNELS 3 Xrotation Yrotation Zrotation
											JOINT RightHand
											{
												OFFSET -26.026505 0.000000 0.000000
												CHANNELS 3 Xrotation Yrotation Zrotation
												End Site
												{
													OFFSET 0 0 0
												}
											}
										}
									}
								}
							}
						}
					}
				}
			}
		}
	}
}
MOTION
Frames: 4
Frame Time: 0.03333333
2.531156 31.109852 -32.146698 0.000000 0.000000 0.000000 39.844308 -3.923315 6.361207 -57.123730 -37.305937 28.131012 122.019212 -20.741700 -12.674832 25.964136 10.073744 -19.979688 -0.012497 4.843728 31.998856 0.000000 0.000000 0.000000 39.849919 0.403346 3.934998 -31.960518 29.023417 -55.788989 115.310860 30.267225 15.359099 10.181225 14.589412 14.958370 9.544742 13.895084 7.826035 0.000000 0.000000 0.000000 36.381361 1.251921 3.038702 22.704951 4.871021 -7.122934 17.469995 1.832926 -1.065158 -0.752236 -0.075514 1.732341 0.000000 0.000000 0.000000 18.627516 2.234839 -1.325288 4.567187 -1.439995 3.043576 -3.721958 -6.865987 4.902452 0.000000 0.000000 0.000000 16.893202 1.841177 -1.563989 1.080694 -34.600891 -5.357520 0.911329 -2.708785 -0.919847 -59.324230 -42.921844 -53.559246 1.773583 -55.910405 2.453896 0.000000 0.000000 0.000000 16.151599 1.717849 -1.060113 -1.210458 10.723262 4.299601 -0.770463 -5.140086 -1.998997 -46.141182 18.175565 49.453472 -2.927186 67.959679 1.658574 0.000000 0.000000 0.000000 
2.268011 30.477222 -32.769112 0.000000 0.000000 0.000000 38.001595 -4.836661 5.801312 -53.774585 -40.252798 32.310046 121.424275 -23.444008 -13.681759 27.727001 8.775535 -19.860969 -0.442082 4.664137 32.445816 0.000000 0.000000 0.000000 37.806388 0.487427 3.218872 -31.378739 31.682724 -55.678158 115.872711 30.664947 15.774015 11.773985 14.117793 15.649833 9.054845 14.048389 7.894040 0.000000 0.000000 0.000000 34.324812 -0.110194 3.099124 22.223171 4.533782 -7.610169 18.670725 1.766621 -1.536085 -0.506962 -0.288363 2.015277 0.000000 0.000000 0.000000 19.735832 2.232914 -1.757624 4.359740 -1.232538 2.508351 -2.019354 -6.450294 5.655946 0.000000 0.000000 0.000000 18.109502 1.817639 -1.969648 0.729808 -31.911856 -7.200773 0.616191 -3.776274 -0.445878 -59.688641 -43.317879 -52.568636 2.044810 -55.855296 3.138920 0.000000 0.000000 0.000000 17.277609 1.653766 -1.472342 -1.112619 9.981416 4.340852 -0.699502 -4.987008 -1.742115 -48.592616 18.935011 51.666245 -2.519174 68.523743 1.270052 0.000000 0.000000 0.000000 
2.059717 29.976303 -33.609261 0.000000 0.000000 0.000000 36.118068 -5.718539 5.155344 -49.860709 -42.747726 36.481065 120.954194 -25.652816 -14.472157 29.743322 7.543207 -19.913418 -0.657276 4.509516 32.863759 0.000000 0.000000 0.000000 35.699155 0.248455 2.560303 -30.935774 34.106362 -54.566279 116.411654 30.755526 15.817325 13.165044 13.463117 16.425266 8.801754 14.236418 7.928110 0.000000 0.000000 0.000000 32.159816 -1.733786 3.152261 21.756297 4.171639 -8.041049 19.500571 1.648116 -1.989212 -0.594297 -0.508753 2.180888 0.000000 0.000000 0.000000 20.457801 2.177294 -2.180177 4.520779 -0.960291 1.935142 0.005224 -5.985079 6.523425 0.000000 0.000000 0.000000 18.944006 1.737181 -2.328649 0.452990 -28.573586 -9.122865 0.506391 -4.536413 -0.090966 -59.329188 -42.672519 -51.801954 2.378635 -57.587005 3.920298 0.000000 0.000000 0.000000 17.983378 1.501082 -1.873058 -0.945624 9.388006 4.459524 -0.718098 -5.065808 -1.431089 -51.000551 20.121268 55.284197 -2.312510 68.906104 1.231173 0.000000 0.000000 0.000000 
1.934227 29.606525 -34.472725 0.000000 0.000000 0.000000 34.348588 -6.604715 4.612717 -45.664596 -44.364510 40.062311 120.557156 -27.052289 -15.149373 30.883643 6.994004 -19.717967 -0.236650 4.539789 33.054099 0.000000 0.000000 0.000000 33.616221 -0.413991 2.099482 -30.634583 36.052983 -52.640951 116.942114 30.584679 15.597625 14.130771 12.627855 17.146782 9.049313 14.467391 7.904116 0.000000 0.000000 0.000000 30.038048 -3.503570 3.223459 21.388433 3.784792 -8.416510 20.019452 1.470985 -2.320138 -0.757530 -0.868889 2.319701 0.000000 0.000000 0.000000 20.869592 2.044209 -2.501458 4.977861 -0.647972 1.432210 2.118076 -5.529532 7.335005 0.000000 0.000000 0.000000 19.464279 1.580220 -2.555803 0.293191 -25.082632 -10.836671 0.619196 -4.814372 0.187037 -58.270461 -41.158392 -51.493496 2.584446 -60.558909 4.533120 0.000000 0.000000 0.000000 18.348403 1.283203 -2.161260 -0.745270 8.940462 4.576173 -0.942694 -5.296019 -1.129477 -53.202696 21.515504 59.817376 -2.537269 68.521093 1.712188 0.000000 0.000000 0.000000 
